<?xml version="1.0" encoding="UTF-8"?>
<svg id="Layer_1" data-name="Layer 1" xmlns="http://www.w3.org/2000/svg" viewBox="0 0 200 56.8">
  <defs>
    <style>
      .cls-1 {
        fill: #0476d9;
      }

      .cls-2 {
        fill: #5eadf2;
      }

      .cls-3 {
        fill: #15161a;
      }

      .cls-4 {
        fill: #99d9f2;
      }
    </style>
  </defs>
  <g>
    <path class="cls-1" d="M33.36,56.74c-10.77-1.1-20.61-5.93-28.03-13.3C2.28,40.41.43,36.37.12,32.08c-.36-5,.09-10,1.3-14.79,1.34-5.29,6.35-8.79,11.79-8.23,10.67,1.1,20.54,5.87,28.01,13.27,3.03,3,4.9,7.01,5.22,11.26.37,4.96-.04,9.98-1.27,14.87-1.34,5.32-6.35,8.83-11.81,8.28Z"/>
    <circle class="cls-4" cx="51.84" cy="10.98" r="10.98"/>
    <path class="cls-2" d="M74.83,34.6c.48,1.88.12,3.88-1,5.46-2.76,3.9-6.53,7.16-11.15,9.35-2.19,1.04-4.45,1.77-6.73,2.23-2.52.5-4.9-1.33-5.07-3.89-.55-8.27,2.52-16.46,8.42-22.33,2.43-2.42,6.22-2.67,8.97-.61,3.19,2.39,5.55,5.83,6.57,9.8Z"/>
  </g>
  <g>
    <rect class="cls-3" x="92.95" y="8.06" width="3.32" height="16.22"/>
    <path class="cls-3" d="M102.4,17.24c0-.54.1-1.01.3-1.38.2-.38.48-.67.84-.87.36-.2.77-.3,1.22-.3.69,0,1.23.21,1.62.64.39.43.58,1.02.58,1.77v7.17h3.27v-7.74c0-.95-.17-1.77-.52-2.46s-.83-1.21-1.46-1.58c-.63-.37-1.36-.55-2.2-.55-1.03,0-1.87.28-2.52.83-.53.46-.96,1.07-1.27,1.84l-.05-2.52h-3.08v12.17h3.27v-7.04Z"/>
    <path class="cls-3" d="M118.31,24.39c.36-.04.72-.12,1.08-.23l-.47-2.45c-.12.03-.29.06-.51.09-.23.03-.4.05-.52.05-.4,0-.68-.09-.85-.28s-.26-.47-.26-.85v-6.12h2.28v-2.49h-2.28v-2.9h-3.27v2.9h-1.68v2.49h1.68v6.4c0,1.11.32,1.96.97,2.56.65.6,1.58.89,2.8.89.33,0,.67-.02,1.03-.07Z"/>
    <path class="cls-3" d="M131.82,21.18l-2.96-.56c-.12.31-.28.58-.51.79-.22.21-.49.38-.8.48-.31.11-.66.16-1.05.16-.57,0-1.06-.12-1.49-.36-.42-.24-.75-.6-.99-1.08-.21-.43-.33-.96-.35-1.58h8.32v-.91c0-1.05-.15-1.95-.44-2.72-.29-.77-.7-1.41-1.22-1.92s-1.13-.89-1.82-1.15c-.69-.25-1.43-.38-2.23-.38-1.18,0-2.21.27-3.09.79-.88.53-1.56,1.27-2.04,2.21-.48.94-.72,2.04-.72,3.3s.24,2.4.72,3.33,1.17,1.66,2.07,2.17c.9.51,1.97.76,3.21.76.95,0,1.79-.14,2.52-.41.73-.28,1.34-.67,1.82-1.17.49-.5.83-1.09,1.02-1.76ZM124.88,14.81c.4-.26.88-.39,1.44-.39s1.03.13,1.41.39c.38.26.67.62.86,1.09.13.33.22.7.26,1.11h-5.16c.04-.41.13-.79.29-1.13.2-.45.5-.8.9-1.06Z"/>
    <rect class="cls-3" x="134.24" y="8.06" width="3.27" height="16.22"/>
    <rect class="cls-3" x="140.28" y="8.06" width="3.27" height="16.22"/>
    <rect class="cls-3" x="146.33" y="12.11" width="3.27" height="12.17"/>
    <path class="cls-3" d="M147.96,10.52c.49,0,.92-.16,1.27-.49.35-.33.53-.72.53-1.19s-.18-.86-.53-1.19c-.35-.33-.77-.49-1.27-.49s-.91.16-1.26.49-.52.72-.52,1.19.17.86.52,1.19.77.49,1.26.49Z"/>
    <path class="cls-3" d="M162.91,26.92c.5-.73.76-1.64.76-2.73v-12.07h-3.21v2.05h-.14c-.15-.32-.36-.65-.65-1-.29-.34-.66-.63-1.13-.86-.46-.23-1.04-.34-1.72-.34-.9,0-1.73.23-2.48.7-.75.46-1.35,1.16-1.81,2.08-.45.92-.68,2.07-.68,3.44s.22,2.45.67,3.33c.45.88,1.04,1.53,1.79,1.96.75.43,1.58.64,2.49.64.66,0,1.21-.1,1.66-.29.45-.19.81-.44,1.08-.75.28-.3.49-.62.63-.95h.25v2.24c0,.81-.24,1.4-.71,1.78s-1.13.57-1.97.57c-.52,0-.96-.07-1.32-.21-.36-.14-.64-.31-.85-.53-.21-.21-.37-.43-.47-.66l-2.81.78c.18.57.51,1.08.98,1.54.47.45,1.08.8,1.84,1.06.75.26,1.64.39,2.66.39,1.15,0,2.16-.18,3.05-.54.89-.36,1.58-.91,2.08-1.63ZM160.14,20.02c-.2.52-.5.92-.89,1.19-.39.28-.86.41-1.42.41s-1.05-.14-1.44-.42-.69-.68-.89-1.2c-.2-.52-.3-1.13-.3-1.85s.1-1.31.3-1.85c.2-.54.49-.96.88-1.27.39-.31.87-.46,1.44-.46s1.03.15,1.42.45c.39.3.68.71.89,1.25.2.54.3,1.16.3,1.88s-.1,1.35-.3,1.87Z"/>
    <path class="cls-3" d="M175.84,13.49c-.52-.51-1.13-.89-1.82-1.15-.69-.25-1.43-.38-2.23-.38-1.18,0-2.21.27-3.09.79-.88.53-1.56,1.27-2.04,2.21-.48.94-.72,2.04-.72,3.3s.24,2.4.72,3.33,1.17,1.66,2.07,2.17c.9.51,1.97.76,3.21.76.95,0,1.79-.14,2.52-.41.73-.28,1.34-.67,1.82-1.17.49-.5.83-1.09,1.02-1.76l-2.96-.56c-.12.31-.28.58-.51.79-.22.21-.49.38-.8.48-.31.11-.66.16-1.05.16-.57,0-1.06-.12-1.49-.36-.42-.24-.75-.6-.99-1.08-.21-.43-.33-.96-.35-1.58h8.32v-.91c0-1.05-.15-1.95-.44-2.72-.29-.77-.7-1.41-1.22-1.92ZM170.38,14.81c.4-.26.88-.39,1.44-.39s1.03.13,1.41.39c.38.26.67.62.86,1.09.13.33.22.7.26,1.11h-5.16c.04-.41.13-.79.29-1.13.2-.45.5-.8.9-1.06Z"/>
    <path class="cls-3" d="M188.86,12.51c-.63-.37-1.36-.55-2.2-.55-1.03,0-1.87.28-2.52.83-.53.46-.96,1.07-1.27,1.84l-.05-2.52h-3.08v12.17h3.27v-7.04c0-.54.1-1.01.3-1.38.2-.38.48-.67.84-.87.36-.2.77-.3,1.22-.3.69,0,1.23.21,1.62.64.39.43.58,1.02.58,1.77v7.17h3.27v-7.74c0-.95-.17-1.77-.52-2.46s-.83-1.21-1.46-1.58Z"/>
    <path class="cls-3" d="M199.53,21.71c-.12.03-.29.06-.51.09-.23.03-.4.05-.52.05-.4,0-.68-.09-.85-.28s-.26-.47-.26-.85v-6.12h2.28v-2.49h-2.28v-2.9h-3.27v2.9h-1.68v2.49h1.68v6.4c0,1.11.32,1.96.97,2.56.65.6,1.58.89,2.8.89.33,0,.67-.02,1.03-.07.36-.04.72-.12,1.08-.23l-.47-2.45Z"/>
    <path class="cls-3" d="M108.56,39.75c-.15.67-.28,1.38-.42,2.14-.13.76-.26,1.52-.38,2.29-.02.15-.05.3-.07.46-.03-.15-.05-.3-.08-.46-.13-.77-.27-1.53-.41-2.29-.14-.76-.29-1.47-.46-2.14l-1.97-7.98h-3.45l-1.98,7.98c-.17.67-.32,1.38-.46,2.14-.14.76-.27,1.52-.4,2.29-.03.16-.06.33-.08.49-.03-.16-.05-.32-.08-.49-.12-.77-.25-1.53-.38-2.29-.13-.76-.27-1.47-.42-2.14l-1.88-7.98h-3.63l4.35,16.22h3.8l2.14-8.3c.25-.98.45-2,.59-3.06.04-.29.08-.58.13-.87.05.31.1.63.15.94.16,1.07.36,2.07.59,2.99l2.16,8.3h3.79l4.37-16.22h-3.64l-1.88,7.98Z"/>
    <path class="cls-3" d="M121.47,35.66c-.68,0-1.29.19-1.81.58-.53.38-.9.95-1.13,1.71h-.13v-2.12h-3.16v12.17h3.27v-6.92c0-.51.11-.95.33-1.33.22-.38.53-.68.93-.89.4-.21.85-.32,1.34-.32.25,0,.51.01.78.04.28.03.49.07.63.12v-2.92c-.15-.04-.32-.06-.51-.08-.2-.02-.38-.03-.54-.03Z"/>
    <path class="cls-3" d="M126.05,30.88c-.49,0-.91.16-1.26.49s-.52.72-.52,1.19.17.86.52,1.19.77.49,1.26.49.92-.16,1.27-.49c.35-.33.53-.72.53-1.19s-.18-.86-.53-1.19c-.35-.33-.77-.49-1.27-.49Z"/>
    <rect class="cls-3" x="124.42" y="35.82" width="3.27" height="12.17"/>
    <path class="cls-3" d="M135.86,45.51c-.23.03-.4.05-.52.05-.4,0-.68-.09-.85-.28s-.26-.47-.26-.85v-6.12h2.28v-2.49h-2.28v-2.9h-3.27v2.9h-1.68v2.49h1.68v6.4c0,1.11.32,1.96.97,2.56.65.6,1.58.89,2.8.89.33,0,.67-.02,1.03-.07.36-.04.72-.12,1.08-.23l-.47-2.45c-.12.03-.29.06-.51.09Z"/>
    <path class="cls-3" d="M140.26,30.88c-.49,0-.91.16-1.26.49s-.52.72-.52,1.19.17.86.52,1.19.77.49,1.26.49.92-.16,1.27-.49c.35-.33.53-.72.53-1.19s-.18-.86-.53-1.19c-.35-.33-.77-.49-1.27-.49Z"/>
    <rect class="cls-3" x="138.63" y="35.82" width="3.27" height="12.17"/>
    <path class="cls-3" d="M153.79,36.22c-.63-.37-1.36-.55-2.2-.55-1.03,0-1.87.28-2.52.83-.53.46-.96,1.07-1.27,1.84l-.05-2.52h-3.08v12.17h3.27v-7.04c0-.54.1-1.01.3-1.38.2-.38.48-.67.84-.87.36-.2.77-.3,1.22-.3.69,0,1.23.21,1.62.64.39.43.58,1.02.58,1.77v7.17h3.27v-7.74c0-.95-.17-1.77-.52-2.46s-.83-1.21-1.46-1.58Z"/>
    <path class="cls-3" d="M166.64,37.87h-.14c-.15-.32-.36-.65-.65-1-.29-.34-.66-.63-1.13-.86-.46-.23-1.04-.34-1.72-.34-.9,0-1.73.23-2.48.7-.75.46-1.35,1.16-1.81,2.08-.45.92-.68,2.07-.68,3.44s.22,2.45.67,3.33c.45.88,1.04,1.53,1.79,1.96.75.43,1.58.64,2.49.64.66,0,1.21-.1,1.66-.29.45-.19.81-.44,1.08-.75.28-.3.49-.62.63-.95h.25v2.24c0,.81-.24,1.4-.71,1.78s-1.13.57-1.97.57c-.52,0-.96-.07-1.32-.21-.36-.14-.64-.31-.85-.53-.21-.21-.37-.43-.47-.66l-2.81.78c.18.57.51,1.08.98,1.54.47.45,1.08.8,1.84,1.06.75.26,1.64.39,2.66.39,1.15,0,2.16-.18,3.05-.54.89-.36,1.58-.91,2.08-1.63.5-.73.76-1.64.76-2.73v-12.07h-3.21v2.05ZM166.33,43.73c-.2.52-.5.92-.89,1.19-.39.28-.86.41-1.42.41s-1.05-.14-1.44-.42-.69-.68-.89-1.2c-.2-.52-.3-1.13-.3-1.85s.1-1.31.3-1.85c.2-.54.49-.96.88-1.27.39-.31.87-.46,1.44-.46s1.03.15,1.42.45c.39.3.68.71.89,1.25.2.54.3,1.16.3,1.88s-.1,1.35-.3,1.87Z"/>
  </g>
</svg>